<svg id="Layer_1" data-name="Layer 1" xmlns="http://www.w3.org/2000/svg" viewBox="0 0 40 40"><defs><style>.cls-1,.cls-2{fill:#cc3e78;}.cls-1{stroke:#fff;stroke-miterlimit:10;stroke-width:0.3px;}</style></defs><title>icon</title><path class="cls-1" d="M17.79038,25.84529l.23954,5.63174H17.6335q-3.45713,0-6.91426-.00019c-.436-.00007-.43627-.00117-.43629-.43826-.00011-1.94846-.02063-3.89727.0117-5.8452a8.74444,8.74444,0,0,1,.25563-1.90289,2.74882,2.74882,0,0,1,2.3028-2.0444,5.87119,5.87119,0,0,1,2.41622.08214,7.01784,7.01784,0,0,1,3.691,2.05781q.753.75007,1.5058,1.50033a2.09935,2.09935,0,0,0,2.31118.60506,18.28131,18.28131,0,0,0,2.422-1.08129,1.50706,1.50706,0,0,1,2.07015.35337,1.13323,1.13323,0,0,1-.422,1.55559,14.60245,14.60245,0,0,1-1.75826.94232,7.09982,7.09982,0,0,1-3.38135.7568,3.99738,3.99738,0,0,1-2.15824-.70279c-.54418-.39472-1.035-.863-1.54955-1.29859C17.95346,25.97739,17.90558,25.93944,17.79038,25.84529Z"/><path class="cls-1" d="M14.253,13.97369a3.43282,3.43282,0,0,1,3.2232,2.1556,2.8587,2.8587,0,0,1-.82488,3.14922,3.49378,3.49378,0,0,1-3.99928.53524,3.65038,3.65038,0,0,1-1.16116-.96449,2.596,2.596,0,0,1-.58163-2.27291,3.23554,3.23554,0,0,1,2.51908-2.49507C13.698,14.02155,13.97787,14.00833,14.253,13.97369Z"/><path class="cls-2" d="M29.72959,10.77606a5.67253,5.67253,0,0,1-3.16839.12421l1.54486,1.28044-.07553.09572a4.19477,4.19477,0,0,1-1.9099-1.38246,2.94069,2.94069,0,0,0-.03716.302c-.00212.86876.01233,1.73784-.00854,2.6061-.00741.30849.10372.36895.38456.36532,1.10247-.01426,2.20524-.00717,3.30789-.00513.38867.00072.45075.0638.45275.43938.0016.30072-.01357.60227.00412.90195.0188.31839-.10686.43191-.42668.43-1.73745-.01028-3.475-.00483-5.21252-.00483-.76851,0-1.53715-.00778-2.30549.00385-.28956.00438-.40361-.10693-.39073-.39436.01443-.32235.01711-.64662-.00073-.96863-.0173-.31243.127-.41224.41709-.41062,1.11376.00622,2.22767-.00584,3.34128.00839.28078.00358.39716-.05832.39066-.36572-.01836-.86836-.00556-1.73738-.0076-2.60613-.0002-.08228-.01839-.16453-.03732-.32285a4.11471,4.11471,0,0,1-1.871,1.38729c.29764-.66551.8903-.93922,1.39648-1.31848a6.14534,6.14534,0,0,1-3.13607-.16215,5.68942,5.68942,0,0,1,3.20626-.14763A6.68354,6.68354,0,0,1,22.59223,8.0348a6.85456,6.85456,0,0,1,3.32457,2.44443,6.87211,6.87211,0,0,1,.1385-5.1525,6.75717,6.75717,0,0,1,.13437,5.15666,6.84053,6.84053,0,0,1,3.32113-2.451,6.51309,6.51309,0,0,1-2.95593,2.5824A5.8115,5.8115,0,0,1,29.72959,10.77606Z"/><path class="cls-1" d="M25.996,16.27224c.93493-.00011,1.86988-.00223,2.8048.0009.38955.0013.44379.07674.38165.46123-.0975.60329-.18027,1.20906-.28456,1.81114-.12448.71869-.274,1.43311-.39362,2.15255a.32384.32384,0,0,1-.37936.31456q-2.137-.00643-4.274.00092a.32536.32536,0,0,1-.37419-.32144c-.22665-1.344-.46291-2.68631-.69606-4.02918-.05253-.30258.09813-.3949.37713-.393C24.10385,16.2763,25.05,16.27235,25.996,16.27224Z"/></svg>