<svg id="Layer_1" data-name="Layer 1" xmlns="http://www.w3.org/2000/svg" viewBox="0 0 40 40">
  <title>icon</title>
  <path d="M18.107,27.44338l.23954,5.63174h-.39642q-3.45712,0-6.91425-.00018c-.436-.00008-.43627-.00118-.4363-.43827-.00011-1.94846-.02062-3.89727.01171-5.84519a8.74444,8.74444,0,0,1,.25562-1.9029,2.74888,2.74888,0,0,1,2.30281-2.0444,5.87132,5.87132,0,0,1,2.41621.08214,7.018,7.018,0,0,1,3.691,2.05781q.753.75009,1.50579,1.50033a2.09933,2.09933,0,0,0,2.31118.60506,18.28268,18.28268,0,0,0,2.422-1.08128,1.507,1.507,0,0,1,2.07015.35336,1.13327,1.13327,0,0,1-.422,1.5556,14.60323,14.60323,0,0,1-1.75827.94232,7.0999,7.0999,0,0,1-3.38135.75679,3.9974,3.9974,0,0,1-2.15824-.70278c-.54417-.39473-1.035-.863-1.54954-1.2986C18.27008,27.57548,18.2222,27.53754,18.107,27.44338Z" style="fill: #cc3e78;stroke: #fff;stroke-miterlimit: 10;stroke-width: 0.300000011920929px"/>
  <path d="M14.56964,15.57178a3.43283,3.43283,0,0,1,3.22321,2.1556A2.85873,2.85873,0,0,1,16.968,20.8766a3.4938,3.4938,0,0,1-3.99928.53525,3.65055,3.65055,0,0,1-1.16117-.96449,2.59608,2.59608,0,0,1-.58163-2.27292A3.23555,3.23555,0,0,1,13.745,15.67937C14.01458,15.61964,14.29448,15.60642,14.56964,15.57178Z" style="fill: #cc3e78;stroke: #fff;stroke-miterlimit: 10;stroke-width: 0.300000011920929px"/>
  <path d="M30.04621,12.37415a5.67253,5.67253,0,0,1-3.16839.12421l1.54486,1.28044-.07554.09572a4.19475,4.19475,0,0,1-1.90989-1.38245,2.93812,2.93812,0,0,0-.03717.302c-.00211.86875.01233,1.73784-.00853,2.60609-.00742.30849.10372.36895.38455.36532,1.10247-.01426,2.20524-.00717,3.30789-.00513.38867.00072.45075.0638.45276.43938.0016.30072-.01357.60227.00412.90195.01879.31839-.10687.43191-.42668.43-1.73746-.01028-3.475-.00483-5.21252-.00483-.76852,0-1.53715-.00778-2.30549.00385-.28956.00439-.40361-.10692-.39074-.39436.01444-.32235.01711-.64662-.00072-.96863-.0173-.31243.127-.41223.41708-.41061,1.11376.00621,2.22768-.00585,3.34129.00838.28077.00359.39715-.05832.39065-.36571-.01835-.86837-.00556-1.73738-.0076-2.60614-.00019-.08228-.01839-.16452-.03732-.32284a4.11483,4.11483,0,0,1-1.871,1.38729c.29764-.66551.8903-.93922,1.39648-1.31849a6.14528,6.14528,0,0,1-3.13608-.16215,5.68942,5.68942,0,0,1,3.20626-.14763,6.68347,6.68347,0,0,1-2.99565-2.59693,6.85462,6.85462,0,0,1,3.32458,2.44444,6.87209,6.87209,0,0,1,.13849-5.15251,6.75715,6.75715,0,0,1,.13438,5.15667,6.84051,6.84051,0,0,1,3.32112-2.451,6.513,6.513,0,0,1-2.95592,2.5824A5.8116,5.8116,0,0,1,30.04621,12.37415Z" style="fill: #cc3e78"/>
  <path d="M26.31263,17.87033c.93494-.00011,1.86988-.00223,2.80481.0009.38954.00131.44379.07675.38165.46123-.09751.6033-.18028,1.20907-.28456,1.81114-.12449.7187-.274,1.43311-.39362,2.15255a.32384.32384,0,0,1-.37937.31456q-2.137-.00642-4.274.00092a.32536.32536,0,0,1-.3742-.32144c-.22664-1.344-.4629-2.68631-.696-4.02917-.05254-.30259.09813-.3949.37713-.393C24.42047,17.87439,25.36656,17.87044,26.31263,17.87033Z" style="fill: #cc3e78;stroke: #fff;stroke-miterlimit: 10;stroke-width: 0.300000011920929px"/>
</svg>
